<?xml version="1.0" encoding="utf-8"?>
<!-- Generator: Adobe Illustrator 17.1.0, SVG Export Plug-In . SVG Version: 6.00 Build 0)  -->
<!DOCTYPE svg PUBLIC "-//W3C//DTD SVG 1.1//EN" "http://www.w3.org/Graphics/SVG/1.1/DTD/svg11.dtd">
<svg version="1.1" id="Слой_1" xmlns="http://www.w3.org/2000/svg" xmlns:xlink="http://www.w3.org/1999/xlink" x="0px" y="0px"
	 viewBox="0 0 500 500" enable-background="new 0 0 500 500" xml:space="preserve">
<g id="XMLID_4_">
	<path id="XMLID_3_" fill="#BFBFBF" d="M293,326.7c0.6-1.5,1.1-3.1,1.8-4.6c4.6-0.2,8.8-0.3,12-0.3c2.6,0,4.6,0,5.8,0
		c4.6,0.3,10.8,0.8,15.8,0.8c4.4,0,22.1-1.2,32.3-2.2c1.3-0.1,2.5-0.3,3.6-0.4c9-1,15.1-8.5,15.1-8.5s0-0.1,0.1-0.2l0,0
		c0,0,0,0,0-0.1c0,0,0-0.1,0.1-0.1c0-0.1,0.1-0.1,0.1-0.2c0-0.1,0.1-0.1,0.1-0.2c0.1-0.1,0.1-0.2,0.2-0.3c0-0.1,0.1-0.1,0.1-0.2
		c0.1-0.2,0.2-0.4,0.3-0.6c0,0,0-0.1,0.1-0.1c0.1-0.2,0.2-0.4,0.3-0.6c0-0.1,0.1-0.2,0.2-0.3c0.1-0.2,0.2-0.4,0.3-0.6
		c0.1-0.1,0.1-0.2,0.2-0.4c0.1-0.2,0.2-0.4,0.3-0.6c0.1-0.1,0.1-0.3,0.2-0.4c0.1-0.2,0.2-0.4,0.3-0.6c0.1-0.2,0.2-0.3,0.2-0.5
		c0.1-0.2,0.2-0.5,0.3-0.7c0.1-0.2,0.2-0.3,0.2-0.5c0.1-0.3,0.3-0.6,0.4-0.9c0.1-0.2,0.1-0.3,0.2-0.5c0.2-0.5,0.4-0.9,0.6-1.5
		c0-0.1,0.1-0.2,0.1-0.3c0.2-0.4,0.3-0.8,0.5-1.2c0.1-0.2,0.2-0.4,0.2-0.6c0.1-0.3,0.3-0.7,0.4-1.1c0.1-0.2,0.2-0.5,0.3-0.7
		c0.1-0.3,0.3-0.7,0.4-1.1c0.1-0.3,0.2-0.5,0.3-0.8c0.1-0.2,0.1-0.3,0.2-0.5c0,0,0,0,0,0c0.1-0.4,0.2-0.7,0.4-1.1
		c3-9.4,3.6-31.1,3.7-37.6c-0.3-6.6-1.3-28.5-4.6-37.9c-0.1-0.4-0.3-0.7-0.4-1.1c0,0,0,0,0,0c-0.1-0.2-0.1-0.3-0.2-0.5
		c-0.1-0.3-0.2-0.5-0.3-0.8c-0.1-0.4-0.3-0.7-0.4-1.1c-0.1-0.2-0.2-0.5-0.3-0.7c-0.1-0.4-0.3-0.7-0.4-1c-0.1-0.2-0.2-0.4-0.3-0.6
		c-0.2-0.4-0.3-0.8-0.5-1.2c0-0.1-0.1-0.2-0.1-0.3c-0.2-0.5-0.4-1-0.6-1.4c-0.1-0.2-0.1-0.3-0.2-0.5c-0.1-0.3-0.3-0.6-0.4-0.9
		c-0.1-0.2-0.2-0.3-0.2-0.5c-0.1-0.2-0.2-0.5-0.4-0.7c-0.1-0.2-0.2-0.3-0.2-0.5c-0.1-0.2-0.2-0.4-0.3-0.6c-0.1-0.1-0.1-0.3-0.2-0.4
		c-0.1-0.2-0.2-0.4-0.3-0.6c-0.1-0.1-0.1-0.2-0.2-0.4c-0.1-0.2-0.2-0.4-0.3-0.6c-0.1-0.1-0.1-0.2-0.2-0.3c-0.1-0.2-0.2-0.4-0.3-0.6
		c0,0,0-0.1-0.1-0.1c-0.1-0.2-0.2-0.4-0.4-0.6c0,0-0.1-0.1-0.1-0.1c-0.1-0.1-0.1-0.2-0.2-0.3c0-0.1-0.1-0.1-0.1-0.1
		c0-0.1-0.1-0.1-0.1-0.2c0,0,0-0.1-0.1-0.1c0,0,0,0,0-0.1l0,0c-0.1-0.1-0.1-0.2-0.1-0.2s-6.3-7.4-15.3-8.2c-1-0.1-2.3-0.2-3.6-0.3
		c-10.3-0.8-28-1.5-32.3-1.5c-5,0.1-11.1,0.7-15.8,1.1c-1.1,0.1-3.1,0.1-5.8,0.1c-3.2,0-7.4,0-12.1-0.1c-0.7-1.5-1.3-3-1.9-4.5
		c-1-2.3-2.2-4.6-4.1-6.3c-1.7-1.4-4.1-2.2-6.3-1.6c-0.3,0.1-0.5,0.2-0.8,0.3c1.4,4.3,2.2,6.9,3.5,11.1c0.1,0.2,0.2,0.5,0.3,0.8
		c-4.5-0.1-9.1-0.1-13.4-0.1c-8.1-0.1-21.2,0.2-32.6,0.5c-2.4-1.5-5.5-1.6-8.4-1.6c-0.7,0-1.3,0-1.9,0.3c-0.4,0.2-0.7,0.5-1.1,0.7
		c-1,0.6-2.3,0.4-3.4,0.5c-0.5,0.1-1,0.2-1.4,0.5c0,0-0.1,0.1-0.1,0.1c-3.2,0.1-5.2,0.2-5.2,0.2s-0.2,0-0.5,0
		c-3.6,0.1-26,0.9-31.4,1c-4.4,0-8.2-0.1-9.9-0.2c-0.6,0-0.9,0-0.9,0s-18.6-0.4-26.6-0.3c-8,0.1-16.7,0.8-22,2.1
		c-5.2,1.3-10.4,3.9-13.6,6.3c-1.6,1.2-4.4,3.7-4.4,3.7l0,0.6l0,0.7l-5.3,3.7c0,0-2.2,4.6-2.9,9.6s-2.5,17.4-2.7,23.4
		c-0.1,3.9-0.2,11.3-0.3,15.6c0.1,4.3,0.4,11.3,0.6,15.2c0.3,6,2.4,18.3,3.2,23.3c0.8,5,3.1,9.6,3.1,9.6l5.4,3.6l0,0.7l0,0.6
		c0,0,2.9,2.4,4.5,3.6c3.2,2.4,8.4,4.9,13.7,6c5.3,1.2,13.9,1.7,22,1.6c8-0.1,26.6-0.9,26.6-0.9s0.3,0,0.9-0.1
		c1.7-0.1,5.5-0.3,9.9-0.4c5.4-0.1,27.8,0.2,31.4,0.3c0.3,0,0.5,0,0.5,0s2,0,5.2,0.1c0,0,0.1,0.1,0.1,0.1c0.4,0.3,0.9,0.5,1.4,0.5
		c1.2,0.1,2.4-0.1,3.4,0.4c0.4,0.2,0.7,0.5,1.1,0.7c0.6,0.3,1.3,0.3,1.9,0.2c2.9-0.1,6-0.3,8.4-1.8c11.4,0.1,24.5,0.1,32.6-0.2
		c4.4-0.1,8.9-0.3,13.4-0.4c-0.1,0.3-0.2,0.6-0.2,0.8c-1.3,4.3-2,6.9-3.3,11.2c0.3,0.1,0.5,0.2,0.8,0.3c2.1,0.5,4.5-0.3,6.2-1.7
		C290.9,331.4,292.1,329.1,293,326.7z"/>
	<g id="XMLID_164_">
		<path id="XMLID_258_" fill="#808080" stroke="#333333" stroke-miterlimit="10" d="M378.1,304.7c9-1,15.1-8.5,15.1-8.5
			s4-6.2,7.5-17.4c3-9.4,3.6-31.1,3.7-37.6c-0.3-6.6-1.3-28.5-4.6-37.9c-3.8-11.1-7.9-17.2-7.9-17.2s-6.3-7.4-15.3-8.2
			c-1-0.1-2.3-0.2-3.6-0.3c3.2,2.7,5.1,6.6,5.9,10.9c3.1,17.9,2.3,35.5,2.9,53c-0.2,17.5,0.9,34.8-1.7,52.7c-0.7,4.3-2.5,8.2-5.7,11
			C375.9,304.9,377.1,304.8,378.1,304.7z"/>
		<path id="XMLID_211_" fill="#808080" stroke="#333333" stroke-miterlimit="10" d="M235.5,185.1
			C236.3,184.9,235.6,185.1,235.5,185.1c22.1-2.8,43.8-2.1,65.9-0.1c5.2,0.6,10.2,0.2,15.2-0.4c0.5-2.6,1.3-5.1,2.7-7.4
			c-8.2,0-22.4-0.2-34.8-0.3c-16.4-0.1-54.2,1.2-54.2,1.2s-0.2,0-0.5,0c0,0.1,0,0.2,0,0.3c-0.4,1.8-0.7,3.5-0.9,5.3
			c1.7,0.1,3.4,0.2,5.1,0.4C234.6,184.2,234.9,184.6,235.5,185.1z"/>
		<path id="XMLID_202_" fill="#808080" stroke="#333333" stroke-miterlimit="10" d="M317.1,182.3c10,0.5,41.9,2,45.8,2.7
			c4.4,0.7,11.6,0.5,16,2.7c-0.8-4-2.8-7.6-5.8-10.3c-10.3-0.8-28-1.5-32.3-1.5c-5,0.1-11.1,0.7-15.8,1.1c-1.1,0.1-3.1,0.1-5.8,0.1
			C318.3,178.8,317.6,180.5,317.1,182.3z"/>
		<path id="XMLID_231_" fill="#1A1A1A" d="M314.5,186.5c0.6-0.2,1.2-0.3,1.8-0.5c0.1-0.5,0.2-0.9,0.3-1.4c-5,0.6-10,1-15.2,0.4
			c-1-0.1-1.9-0.2-2.9-0.3c-1.1,1.9-1.5,4-2.3,6C302.3,189.7,308.4,188.3,314.5,186.5z"/>
		
			<linearGradient id="XMLID_2_" gradientUnits="userSpaceOnUse" x1="201.1949" y1="234.7105" x2="184.6526" y2="235.1598" gradientTransform="matrix(1.092839e-002 0.9999 -0.9999 1.092839e-002 497.7741 -2.7837)">
			<stop  offset="0" style="stop-color:#FFFFFF"/>
			<stop  offset="1" style="stop-color:#000000"/>
		</linearGradient>
		<path id="XMLID_232_" fill="url(#XMLID_2_)" d="M296.2,190.8c0.8-2,1.2-4.1,2.3-6c-20.9-1.8-41.6-2.3-62.5,0.3
			c-2.4,2.6-4,5.9-4.8,9.4C252.9,194.4,274.7,194.6,296.2,190.8z"/>
		<path id="XMLID_208_" fill="#808080" stroke="#333333" stroke-miterlimit="10" d="M228.9,183.7c0.2-1.8,0.5-3.5,0.9-5.3
			c0-0.1,0-0.2,0-0.3c-3.6,0.1-26,0.9-31.4,1c-4.4,0-8.2-0.1-9.9-0.2c-0.5,0.7-1.1,1.3-0.9,1.9c0.6,2.1,1.2,4.1,1.8,6.2
			C202.6,184.7,215.5,182.9,228.9,183.7z"/>
		<path id="XMLID_210_" fill="#808080" stroke="#333333" stroke-miterlimit="10" d="M228.5,202.6c-0.1-2.7-0.1-5.4-0.1-8.1
			c-4.9,0-9.8,0-14.7,0.1c-7.2,0.1-14.4,1.4-21.6,1.9c0.7,2.7,1.3,5.3,1.8,8C205.4,204,217,203.3,228.5,202.6z"/>
		
			<linearGradient id="XMLID_5_" gradientUnits="userSpaceOnUse" x1="199.0723" y1="290.8123" x2="186.4854" y2="291.5931" gradientTransform="matrix(1.092839e-002 0.9999 -0.9999 1.092839e-002 497.7741 -2.7837)">
			<stop  offset="0" style="stop-color:#FFFFFF"/>
			<stop  offset="1" style="stop-color:#000000"/>
		</linearGradient>
		<path id="XMLID_229_" fill="url(#XMLID_5_)" d="M189.5,187c0.9,3.2,1.8,6.3,2.5,9.5c7.2-0.5,14.4-1.8,21.6-1.9
			c2.3,0,4.5-0.1,6.8-0.1c1.5-3.9,3.6-7.7,6.2-10.9C214.1,183.1,201.9,184.8,189.5,187z"/>
		<path id="XMLID_206_" d="M236,185.1c-0.1,0-0.2,0-0.4,0c0,0-0.1,0-0.4-0.2c-1-0.6-0.6-0.8-1.2-0.8c-1.7-0.2-3.4-0.3-5.1-0.4
			c-0.7,0-1.4-0.1-2.2-0.1c-2.7,3.2-4.8,7-6.2,10.9c2.6,0,5.2,0,7.9,0c0.9,0,1.9,0,2.8,0C232,191,233.6,187.6,236,185.1z"/>
		<path id="XMLID_207_" fill="#808080" stroke="#333333" stroke-miterlimit="10" d="M132.6,197.1c11.1-4.9,26.5-4.8,38.9-6.8
			c6.1-1.1,12.1-2.2,18-3.3c-0.6-2.1-1.2-4.1-1.8-6.2c-0.2-0.6,0.3-1.2,0.9-1.9c-0.6,0-0.9,0-0.9,0s-18.6-0.4-26.6-0.3
			c-8,0.1-16.7,0.8-22,2.1c-5.2,1.3-10.4,3.9-13.6,6.3c-1.6,1.2-4.4,3.7-4.4,3.7l0,0.6C124.8,195.4,126.8,199.5,132.6,197.1z"/>
		<path id="XMLID_218_" fill="#808080" stroke="#333333" stroke-miterlimit="10" d="M182.1,196.5c-3.8-0.6-7.7-1.2-11.5-0.8
			c-8.9,1.4-17.2,2.7-26.1,4.8c-1.7,0.3-3,1.6-3.7,3.4c9.2,2.5,20.1,1,29.3,1.1c8,0,15.9-0.2,23.8-0.5c-0.6-2.7-1.2-5.3-1.8-8
			C188.7,196.7,185.4,196.8,182.1,196.5z"/>
		<path id="XMLID_228_" d="M192,196.5c-0.8-3.2-1.6-6.3-2.5-9.5c-2,0.3-3.9,0.7-5.9,1.1l2.8,8.6C188.3,196.7,190.2,196.6,192,196.5z
			"/>
		
			<linearGradient id="XMLID_6_" gradientUnits="userSpaceOnUse" x1="201.5541" y1="336.2127" x2="191.6256" y2="338.0143" gradientTransform="matrix(1.092839e-002 0.9999 -0.9999 1.092839e-002 497.7741 -2.7837)">
			<stop  offset="0" style="stop-color:#FFFFFF"/>
			<stop  offset="1" style="stop-color:#000000"/>
		</linearGradient>
		<path id="XMLID_227_" fill="url(#XMLID_6_)" d="M170.6,195.7c3.8-0.4,7.7,0.2,11.5,0.8c1.5,0.1,2.9,0.2,4.4,0.2l-2.8-8.6
			c-4,0.7-8,1.5-12.1,2.2c-10.3,1.7-22.7,1.9-32.9,4.7l15.5,3.5C159.5,197.4,164.9,196.6,170.6,195.7z"/>
		<path id="XMLID_230_" d="M144.5,200.5c3.3-0.7,6.5-1.4,9.6-2l-15.5-3.5c-2.1,0.6-4.1,1.3-6,2.1c-1,0.4-1.8,0.6-2.6,0.7
			c3.1,3.1,6.7,5,10.8,6.1C141.4,202.1,142.7,200.7,144.5,200.5z"/>
		<path id="XMLID_220_" fill="#808080" stroke="#333333" stroke-miterlimit="10" d="M228.4,194.5c0,2.7,0.1,5.4,0.1,8.1
			c18.3-1.2,36.5-2.6,54.9-3.6c-0.1-2.2-0.4-4.3-1.7-6.2C264,194.6,246.1,194.4,228.4,194.5z"/>
		<path id="XMLID_224_" fill="#333333" d="M297.7,196.2c6.1-1,11.9-2.1,17.8-3.1c7.9-1.4,15.8-2.8,24-4c-0.8-1.8-1.5-3.5-1.4-5.5
			c-7.4,1-14.7,0.6-21.8,2.3c-0.6,0.1-1.2,0.3-1.8,0.5c-10.8,3.3-21.8,5.2-32.8,6.3c1.3,1.9,1.6,4,1.7,6.2c0.1,0,0.2,0,0.3,0
			C288.5,198.6,292.9,196.9,297.7,196.2z"/>
		<path id="XMLID_205_" d="M399.5,202.1c-3.4-9.5-6.8-15.1-7.5-16c-1.4,0.3-2.8,0.4-4.2,0.3C391.6,191.8,395.5,197,399.5,202.1z"/>
		<path id="XMLID_150_" fill="#333333" d="M253.1,178.3c-2.5-2.3-6.2-2.5-9.6-2.5c-0.7,0-1.3,0-1.9,0.3c-0.4,0.2-0.7,0.5-1.1,0.7
			c-1,0.6-2.3,0.4-3.4,0.5c-0.5,0.1-1,0.2-1.4,0.5s-0.5,1-0.2,1.4c2.2,0,4.4,0,6.6-0.1c-0.1-0.8,0.5-1.6,1.3-1.9
			c0.8-0.3,1.6-0.3,2.5-0.3c1.9,0.1,4.1,0.4,5,2c0.1,0.2,0.2,0.4,0.4,0.4c0.2,0.1,0.4,0,0.6-0.1c0.4-0.2,0.8-0.3,1.2-0.5
			c0.1-0.1,0.3-0.2,0.2-0.3c0-0.1-0.3,0-0.2,0.1"/>
		<path id="XMLID_223_" fill="#333333" d="M312.3,185.1c0.6-0.6,0.9-1.3,1.2-1.8c0.3-0.6,0.6-1,0.6-1c-2.1,0.2-4.5-1-5.7-2.8
			c-1.4-2.1-2.2-4.5-3.2-6.9c-1-2.3-2.2-4.6-4.1-6.3c-1.7-1.4-4.1-2.2-6.3-1.6l4.8,15.7c0.4,0.2,0.9,0.3,1.7,0.2
			c0.2,0.4,0.4,1,0.6,1.4c-1.5,1-1.6,1.2-2.6,2.8C304.5,185.6,307.8,185.5,312.3,185.1z"/>
		<path id="XMLID_233_" d="M294.1,165.1c1.4,4.3,2.2,6.9,3.5,11.1c0.3,0.8,0.7,2.1,0.9,2.9c0.2,0.5,0.4,1.1,1.1,1.4l-4.8-15.7
			C294.6,164.9,294.4,165,294.1,165.1z"/>
		<path id="XMLID_255_" fill="#808080" stroke="#333333" stroke-miterlimit="10" d="M236.8,300.4
			C237.5,300.6,236.9,300.4,236.8,300.4c22.2,2.3,43.9,1.1,65.9-1.4c5.2-0.7,10.2-0.4,15.2,0.1c0.6,2.6,1.5,5,2.9,7.3
			c-8.2,0.1-22.4,0.7-34.8,1.1c-16.4,0.5-54.2,0-54.2,0s-0.2,0-0.5,0c0-0.1,0-0.2,0-0.3c-0.4-1.8-0.7-3.5-1-5.3
			c1.7-0.1,3.4-0.3,5.1-0.5C235.9,301.4,236.2,300.9,236.8,300.4z"/>
		<path id="XMLID_203_" fill="#666666" d="M364.2,297.8c4.7-0.9,12.6-0.8,16.8-3.6c4.2-2.8,10.1-9.1,13-16.1
			c2.9-7.1,4.1-15.8,4.5-21.3c0.2-3.6,0.5-10.9,0.7-15.5c-0.3-4.7-0.7-12.3-1-15.9c-0.5-5.5-1.9-14.2-4.9-21.2
			c-3.1-7-9.1-13.1-13.4-15.8c-4.3-2.7-12.2-2.4-16.9-3.2c-4.7-0.8-48.8-2.8-48.8-2.8l-3.5,5.3l0,4.1c14.6-5.8,32.8-10.1,43.8,2.8
			c11.3,12.9,13.1,30.4,14.1,47.2c-0.6,16.8-2.1,34-13.1,47.1c-10.7,13.1-29,9.2-43.7,3.7l0.1,4.1l3.6,5.2
			C315.4,301.6,359.5,298.7,364.2,297.8z"/>
		<path id="XMLID_253_" fill="#808080" stroke="#333333" stroke-miterlimit="10" d="M318.4,301.4c10-0.7,41.8-2.9,45.7-3.7
			c4.4-0.8,11.6-0.8,15.9-3.1c-0.7,4-2.6,7.7-5.6,10.4c-10.2,1-27.9,2.1-32.3,2.2c-5,0.1-11.1-0.5-15.8-0.8c-1.1-0.1-3.1-0.1-5.8,0
			C319.7,304.9,319,303.2,318.4,301.4z"/>
		<path id="XMLID_256_" d="M353.1,298.8c14-1.4,22.1-2.2,29-8c3.5-2.9,6.6-8.6,12.2-21.2c4.1-9.2,4.5-22.9,4.5-28.5
			c-0.1-5.6-0.8-19.6-5.1-28.7c-5.9-12.4-9.1-18.1-12.7-20.9c-7-5.6-15.1-6.2-29.1-7.3s-38.6-0.2-38.6-0.2l-2.5,3.5l15.9-2.1
			l11.2-0.4c0,0,32,4.8,37.8,9.5c5.8,4.7,14.5,14.5,15.9,19.3c1.1,3.8,2.6,20.7,3.3,27.5c-0.5,6.8-1.7,23.4-2.7,27.2
			c-1.2,4.8-9.7,14.8-15.4,19.6S339,298.3,339,298.3l-11.2-0.2l-16-1.7l2.6,3.5C314.5,299.9,339.1,300.3,353.1,298.8z"/>
		<path id="XMLID_252_" fill="#1A1A1A" d="M315.7,297.3c0.6,0.2,1.2,0.3,1.8,0.4c0.1,0.5,0.2,0.9,0.3,1.4c-5-0.5-10-0.8-15.2-0.1
			c-1,0.1-1.9,0.2-2.9,0.3c-1.1-1.9-1.6-4-2.4-6C303.5,294.4,309.6,295.6,315.7,297.3z"/>
		
			<linearGradient id="XMLID_7_" gradientUnits="userSpaceOnUse" x1="7971.6987" y1="234.7105" x2="7955.1567" y2="235.1598" gradientTransform="matrix(-1.092839e-002 -0.9999 -0.9999 1.092839e-002 587.9971 8252.5918)">
			<stop  offset="0" style="stop-color:#FFFFFF"/>
			<stop  offset="1" style="stop-color:#000000"/>
		</linearGradient>
		<path id="XMLID_251_" fill="url(#XMLID_7_)" d="M297.3,293.4c0.8,2,1.3,4.1,2.4,6c-20.9,2.2-41.5,3.2-62.5,1.1
			c-2.4-2.5-4.1-5.9-5-9.3C253.9,290.7,275.7,290.1,297.3,293.4z"/>
		<path id="XMLID_250_" fill="#808080" stroke="#333333" stroke-miterlimit="10" d="M230.2,301.9c0.3,1.8,0.6,3.5,1,5.3
			c0,0.1,0,0.2,0,0.3c-3.6,0-26-0.3-31.4-0.3c-4.4,0-8.2,0.3-9.9,0.4c-0.5-0.7-1.1-1.3-0.9-1.9c0.6-2.1,1.2-4.1,1.7-6.2
			C203.9,301.5,216.8,303,230.2,301.9z"/>
		<path id="XMLID_249_" fill="#808080" stroke="#333333" stroke-miterlimit="10" d="M229.4,283.1c0,2.7,0,5.4,0,8.1
			c-4.9,0.1-9.8,0.2-14.7,0.2c-7.2,0.1-14.5-1-21.7-1.4c0.6-2.7,1.2-5.3,1.7-8C206.3,282.2,217.8,282.6,229.4,283.1z"/>
		
			<linearGradient id="XMLID_8_" gradientUnits="userSpaceOnUse" x1="7969.5762" y1="290.8123" x2="7956.9893" y2="291.5931" gradientTransform="matrix(-1.092839e-002 -0.9999 -0.9999 1.092839e-002 587.9971 8252.5918)">
			<stop  offset="0" style="stop-color:#FFFFFF"/>
			<stop  offset="1" style="stop-color:#000000"/>
		</linearGradient>
		<path id="XMLID_248_" fill="url(#XMLID_8_)" d="M190.7,299.5c0.8-3.2,1.6-6.3,2.3-9.5c7.2,0.4,14.5,1.5,21.7,1.4
			c2.3,0,4.5,0,6.8,0c1.6,3.9,3.7,7.6,6.5,10.7C215.4,302.9,203.2,301.4,190.7,299.5z"/>
		<path id="XMLID_247_" d="M237.2,300.5c-0.1,0-0.2,0-0.4,0c0,0-0.1,0-0.4,0.2c-1,0.6-0.6,0.8-1.2,0.8c-1.7,0.2-3.4,0.4-5.1,0.5
			c-0.7,0.1-1.4,0.1-2.2,0.1c-2.7-3.2-4.9-6.9-6.5-10.7c2.6,0,5.2-0.1,7.9-0.1c0.9,0,1.9,0,2.8-0.1
			C233.1,294.6,234.8,297.9,237.2,300.5z"/>
		<path id="XMLID_246_" fill="#808080" stroke="#333333" stroke-miterlimit="10" d="M133.6,290.7c11.2,4.7,26.6,4.2,39,6
			c6.1,0.9,12.1,2,18.1,2.9c-0.5,2.1-1.1,4.1-1.7,6.2c-0.2,0.6,0.4,1.2,0.9,1.9c-0.6,0-0.9,0.1-0.9,0.1s-18.6,0.8-26.6,0.9
			c-8,0.1-16.7-0.4-22-1.6c-5.3-1.2-10.4-3.6-13.7-6c-1.6-1.2-4.5-3.6-4.5-3.6l0-0.6C125.9,292.5,127.8,288.4,133.6,290.7z"/>
		<path id="XMLID_245_" fill="#808080" stroke="#333333" stroke-miterlimit="10" d="M183.1,290.2c-3.8,0.7-7.6,1.4-11.5,1.1
			c-9-1.2-17.3-2.4-26.2-4.2c-1.7-0.2-3.1-1.6-3.8-3.3c9.1-2.7,20.1-1.4,29.2-1.7c8-0.2,15.9-0.1,23.8,0c-0.5,2.7-1.1,5.3-1.7,8
			C189.7,289.8,186.4,289.8,183.1,290.2z"/>
		<path id="XMLID_244_" d="M193.1,290c-0.7,3.2-1.5,6.4-2.3,9.5c-2-0.3-3.9-0.6-5.9-0.9l2.6-8.7C189.3,289.9,191.2,289.9,193.1,290z
			"/>
		
			<linearGradient id="XMLID_9_" gradientUnits="userSpaceOnUse" x1="7972.0581" y1="336.2127" x2="7962.1294" y2="338.0143" gradientTransform="matrix(-1.092839e-002 -0.9999 -0.9999 1.092839e-002 587.9971 8252.5918)">
			<stop  offset="0" style="stop-color:#FFFFFF"/>
			<stop  offset="1" style="stop-color:#000000"/>
		</linearGradient>
		<path id="XMLID_243_" fill="url(#XMLID_9_)" d="M171.6,291.2c3.8,0.3,7.7-0.4,11.5-1.1c1.5-0.1,2.9-0.2,4.4-0.3l-2.6,8.7
			c-4-0.6-8.1-1.3-12.2-1.9c-10.4-1.5-22.7-1.4-33-4l15.4-3.8C160.5,289.7,166,290.5,171.6,291.2z"/>
		<path id="XMLID_242_" d="M145.4,287.1c3.3,0.7,6.5,1.2,9.7,1.8l-15.4,3.8c-2.1-0.5-4.1-1.2-6-2c-1-0.4-1.8-0.6-2.6-0.6
			c3-3.2,6.6-5.2,10.6-6.3C142.3,285.5,143.7,286.8,145.4,287.1z"/>
		<path id="XMLID_209_" fill="#A6A6A6" d="M339,298.3c0,0,30.3-6,35.7-8.1c10.2-3.8,19.6-20.7,19.6-20.7s-1-0.3-0.7-4.1
			s2-18.2,2-18.2s0.3-2.6,1.2-3.2s1.4-1.1,1.4-1.1l0-1.8l0-2.2c0,0-0.5-0.4-1.4-1c-1-0.6-1.3-3.2-1.3-3.2s-2.1-14.3-2.4-18.2
			s0.6-4.2,0.6-4.2s-9.8-16.6-20-20.2c-5.4-1.9-35.8-7.3-35.8-7.3l0.9,3.6l0.7-0.1c0,0,7.4,2.2,9.3,3.1c1.9,0.9,5.2,4.4,6.5,7.6
			c1.3,3.2,6.9,17.8,7.7,31.2c0.3,5,0.4,8.9,0.5,11.2c0,2.4-0.1,5.8-0.3,10.9c-0.5,13.4-5.8,28.2-7,31.4c-1.2,3.2-4.4,6.8-6.3,7.7
			c-1.9,1-9.2,3.3-9.2,3.3l-0.7-0.1L339,298.3z"/>
		
			<linearGradient id="XMLID_10_" gradientUnits="userSpaceOnUse" x1="159.4404" y1="372.4052" x2="339.4377" y2="372.4052" gradientTransform="matrix(1.092839e-002 0.9999 -0.9999 1.092839e-002 497.7741 -2.7837)">
			<stop  offset="0" style="stop-color:#FFFFFF"/>
			<stop  offset="1" style="stop-color:#000000"/>
		</linearGradient>
		<path id="XMLID_221_" fill="url(#XMLID_10_)" d="M141.7,283.7c-2.3-1.5-3.5-4.5-4-6.8c-3.1-10.9-4.5-21.9-3.9-32.8
			c-0.8-11,0.3-22.3,3.2-33.3c0.5-2.3,1.6-5.3,3.9-6.9c-4-1.1-7.6-2.9-10.6-6c-16,8.9-15.3,29-15.3,46.4c0.3,17.3,0,37.1,16.3,45.7
			C134.1,286.8,137.7,284.9,141.7,283.7z"/>
		<path id="XMLID_200_" fill="#808080" stroke="#333333" stroke-miterlimit="10" d="M285.6,242.4c0-14.4-1-29.1-2.1-43.5
			c-18.4,1-36.7,2.4-55,3.6c-11.5,0.8-23.1,1.5-34.6,1.9c-7.9,0.3-15.9,0.5-23.8,0.5c-3.9,0-8.1,0.2-12.3,0.3
			c-5.1,11.8-4.3,25.7-4.5,38.6c0.5,12.8,0,26.4,5.3,38.1c4.3,0,8.5,0.2,12.3,0c8-0.2,15.9-0.1,23.8,0c11.6,0.2,23.1,0.6,34.7,1.1
			c18.3,0.8,36.7,1.8,55.1,2.4C285.2,271.1,285.9,256.8,285.6,242.4z"/>
		<path id="XMLID_204_" fill="#808080" stroke="#333333" stroke-miterlimit="10" d="M158.5,281.9c-5.4-11.7-4.7-25.3-5.2-38.1
			c0.2-12.8-0.8-26.7,4.3-38.6c-4.3,0.1-8.6,0.1-12.7-0.5c-2.4,1.5-4.5,3.2-5.6,5.7c-3.9,10.7-3.5,22.2-3.8,33.6
			c0.5,11.4,0.4,22.5,4.5,33.2c1.1,2.4,3.3,4.1,5.7,5.5C150,282,154.3,281.9,158.5,281.9z"/>
		<path id="XMLID_219_" d="M145.9,282.7c-2.4-1.4-4.6-3.1-5.7-5.5c-4.1-10.6-4-21.8-4.5-33.2c0.3-11.4-0.1-22.9,3.8-33.6
			c1-2.4,3.2-4.2,5.6-5.7c-1.5-0.2-2.9-0.5-4.3-0.9c-2.3,1.6-3.4,4.5-3.9,6.9c-2.9,11-3.8,22.3-3.7,33.3c0.1,11,1.3,21.9,4.4,32.8
			c0.5,2.3,1.7,5.3,4,6.8C143,283.3,144.4,283,145.9,282.7z"/>
		<path id="XMLID_217_" fill="#808080" stroke="#333333" stroke-miterlimit="10" d="M131,290.1c0,0,0.1-0.1,0.1-0.1
			c-16.2-8.6-16-28.3-16.3-45.7c-0.1-17.3-0.8-37.5,15.3-46.4c0,0-0.1-0.1-0.1-0.1c-3.9,0.4-5.8-3-8.9-6.4l0,0.7l-5.3,3.7
			c0,0-2.2,4.6-2.9,9.6c-0.7,5.1-2.5,17.4-2.7,23.4c-0.1,3.9-0.2,11.3-0.3,15.6c0.1,4.3,0.4,11.3,0.6,15.2c0.3,6,2.4,18.3,3.2,23.3
			c0.8,5,3.1,9.6,3.1,9.6l5.4,3.6l0,0.7C125.3,293.2,127.1,289.8,131,290.1z"/>
		<path id="XMLID_236_" fill="#808080" stroke="#333333" stroke-miterlimit="10" d="M229.4,291.2c0-2.7,0-5.4,0-8.1
			c18.3,0.8,36.6,1.8,54.9,2.4c0,2.2-0.3,4.3-1.5,6.2C265,290.3,247.2,290.9,229.4,291.2z"/>
		<path id="XMLID_235_" fill="#333333" d="M298.7,287.9c6.1,0.9,12,1.8,17.9,2.7c8,1.2,15.9,2.5,24.1,3.5c-0.8,1.8-1.4,3.5-1.2,5.5
			c-7.4-0.8-14.7-0.3-21.9-1.8c-0.6-0.1-1.2-0.3-1.8-0.4c-10.9-3-21.9-4.7-32.9-5.6c1.2-1.9,1.5-4,1.5-6.2c0.1,0,0.2,0,0.3,0
			C289.4,285.8,293.9,287.3,298.7,287.9z"/>
		<path id="XMLID_199_" fill="#595959" d="M349.8,291.5c1.9-1,5.1-4.5,6.3-7.7c1.2-3.2,6.5-18,7-31.4c0.2-5,0.3-8.5,0.3-10.9
			c-0.1-2.4-0.2-6.2-0.5-11.2c-0.8-13.4-6.4-28-7.7-31.2c-1.3-3.2-4.5-6.7-6.5-7.6c-1.9-0.9-9.3-3.1-9.3-3.1l-56.1,9.6
			c0,0,1.1,11.5,1.6,25.9c0.3,8,0.3,14.6,0.3,18.6c0.1,3.9,0.2,10.2,0.1,18.2c-0.2,14.4-1,25.9-1,25.9l56.3,8.3
			C340.6,294.8,347.9,292.5,349.8,291.5z"/>
		
			<linearGradient id="XMLID_11_" gradientUnits="userSpaceOnUse" x1="191.9574" y1="180.0571" x2="293.3836" y2="180.0571" gradientTransform="matrix(1.092839e-002 0.9999 -0.9999 1.092839e-002 497.7741 -2.7837)">
			<stop  offset="0" style="stop-color:#FFFFFF"/>
			<stop  offset="1" style="stop-color:#000000"/>
		</linearGradient>
		<path id="XMLID_215_" fill="url(#XMLID_11_)" d="M342.4,288.4c3.2-3.5,7.5-15.1,9.3-25.3c1.3-7.3,1.3-16.6,1.1-21.4
			c0-4.8-0.2-14.5-1.6-21.8c-2-10.2-6.6-21.6-9.9-25.1s-5.2-4.1-9-3.7c-3.8,0.4-40.2,7.8-41.7,8.1c-1.6,0.3-3.8,0-3.1,5.5
			s1.8,16.6,1.8,21.7c0.1,5.1-0.2,10.2-0.2,10.2s0.3,1.6,1.9,1.6c1.3,0,7.3,0.3,9.5,0.5c0.4,0,0.8,0.4,0.8,0.8l0,2.8l0,2.4
			c0,0.4-0.3,0.8-0.7,0.8c-2.1,0.2-8.2,0.7-9.5,0.7c-1.6,0-1.9,1.6-1.9,1.6s0.4,5.1,0.4,10.2c0.1,5.1-0.8,16.3-1.4,21.7
			s1.7,5.1,3.3,5.4c1.6,0.3,38.1,6.9,41.9,7.2S339.3,292,342.4,288.4z"/>
		<path id="XMLID_216_" d="M400.4,279.8c-3.2,9.5-6.5,15.2-7.1,16.2c-1.4-0.2-2.8-0.3-4.2-0.2C392.6,290.4,396.4,285,400.4,279.8z"
			/>
		<path id="XMLID_213_" fill="#333333" d="M254.5,306.8c-2.4,2.4-6.2,2.6-9.5,2.7c-0.7,0-1.3,0-1.9-0.2c-0.4-0.2-0.7-0.5-1.1-0.7
			c-1-0.5-2.3-0.3-3.4-0.4c-0.5,0-1-0.2-1.4-0.5c-0.4-0.3-0.5-1-0.2-1.4c2.2,0,4.4-0.1,6.6-0.1c-0.1,0.8,0.5,1.6,1.3,1.9
			c0.8,0.3,1.6,0.3,2.5,0.2c1.9-0.1,4.1-0.5,4.9-2.1c0.1-0.2,0.2-0.4,0.3-0.4c0.2-0.1,0.4,0,0.6,0.1c0.4,0.1,0.8,0.3,1.2,0.5
			c0.1,0.1,0.3,0.1,0.2,0.3c0,0.1-0.3,0-0.2-0.1"/>
		<path id="XMLID_212_" fill="#333333" d="M313.6,298.7c0.6,0.6,1,1.2,1.3,1.7c0.3,0.6,0.6,1,0.6,1c-2.1-0.1-4.5,1.1-5.6,2.9
			c-1.3,2.1-2.1,4.6-3,6.9c-0.9,2.3-2.1,4.7-4,6.4c-1.7,1.5-4.1,2.3-6.2,1.7l4.5-15.8c0.4-0.2,0.9-0.3,1.7-0.3
			c0.1-0.4,0.4-1,0.5-1.4c-1.5-0.9-1.7-1.1-2.6-2.7C305.8,298.4,309,298.5,313.6,298.7z"/>
		<path id="XMLID_201_" d="M295.8,319.2c1.3-4.3,2-6.9,3.3-11.2c0.2-0.8,0.6-2.1,0.9-2.9c0.2-0.5,0.4-1.1,1.1-1.4l-4.5,15.8
			C296.3,319.4,296,319.3,295.8,319.2z"/>
		<circle id="XMLID_135_" cx="391.7" cy="240.8" r="3.1"/>
	</g>
</g>
</svg>
