<?xml version="1.0" encoding="utf-8"?>
<!-- Generator: Adobe Illustrator 17.1.0, SVG Export Plug-In . SVG Version: 6.00 Build 0)  -->
<!DOCTYPE svg PUBLIC "-//W3C//DTD SVG 1.1//EN" "http://www.w3.org/Graphics/SVG/1.1/DTD/svg11.dtd">
<svg version="1.1" id="Слой_1" xmlns="http://www.w3.org/2000/svg" xmlns:xlink="http://www.w3.org/1999/xlink" x="0px" y="0px"
	 viewBox="0 0 327 184.3" enable-background="new 0 0 327 184.3" xml:space="preserve">
<g id="XMLID_4_">
	<path id="XMLID_3_" fill="#BFBFBF" d="M119.5,29.8c-0.6,1.5-1.2,3.1-1.9,4.5c-4.6,0.1-8.8,0.2-12,0.2c-2.6,0-4.6,0-5.8-0.1
		C95.2,34.2,89,33.5,84,33.6c-4.4,0-22.1,1-32.3,1.9c-1.3,0.1-2.5,0.2-3.6,0.3c-9,0.9-15.2,8.4-15.2,8.4s0,0.1-0.1,0.2h0
		c0,0,0,0,0,0.1c0,0,0,0.1-0.1,0.1c0,0.1-0.1,0.1-0.1,0.2c0,0.1-0.1,0.1-0.1,0.2c-0.1,0.1-0.1,0.2-0.2,0.3c0,0.1-0.1,0.1-0.1,0.1
		c-0.1,0.2-0.2,0.4-0.3,0.6c0,0,0,0.1-0.1,0.1c-0.1,0.2-0.2,0.4-0.3,0.6c0,0.1-0.1,0.2-0.2,0.3c-0.1,0.2-0.2,0.4-0.3,0.5
		c-0.1,0.1-0.1,0.2-0.2,0.4c-0.1,0.2-0.2,0.4-0.3,0.6c-0.1,0.1-0.1,0.3-0.2,0.4c-0.1,0.2-0.2,0.4-0.3,0.6c-0.1,0.2-0.2,0.3-0.2,0.5
		c-0.1,0.2-0.2,0.5-0.3,0.7c-0.1,0.2-0.2,0.3-0.2,0.5c-0.1,0.3-0.3,0.6-0.4,0.9c-0.1,0.2-0.1,0.3-0.2,0.5c-0.2,0.5-0.4,0.9-0.6,1.4
		c0,0.1-0.1,0.2-0.1,0.3c-0.2,0.4-0.3,0.8-0.5,1.2c-0.1,0.2-0.2,0.4-0.2,0.6c-0.1,0.3-0.3,0.7-0.4,1.1c-0.1,0.2-0.2,0.5-0.3,0.7
		c-0.1,0.3-0.3,0.7-0.4,1.1c-0.1,0.3-0.2,0.5-0.3,0.8c-0.1,0.2-0.1,0.3-0.2,0.5c0,0,0,0,0,0c-0.1,0.4-0.2,0.7-0.4,1.1
		c-3.1,9.4-3.9,31-4.1,37.6c0.2,6.6,1.1,28.6,4.2,37.9c0.1,0.4,0.3,0.7,0.4,1.1c0,0,0,0,0,0c0.1,0.2,0.1,0.3,0.2,0.5
		c0.1,0.3,0.2,0.5,0.3,0.8c0.1,0.4,0.3,0.7,0.4,1.1c0.1,0.2,0.2,0.5,0.3,0.7c0.1,0.4,0.3,0.7,0.4,1.1c0.1,0.2,0.2,0.4,0.2,0.6
		c0.2,0.4,0.3,0.8,0.5,1.2c0,0.1,0.1,0.2,0.1,0.3c0.2,0.5,0.4,1,0.6,1.4c0.1,0.2,0.1,0.3,0.2,0.5c0.1,0.3,0.3,0.6,0.4,0.9
		c0.1,0.2,0.2,0.3,0.2,0.5c0.1,0.3,0.2,0.5,0.3,0.7c0.1,0.2,0.2,0.3,0.2,0.5c0.1,0.2,0.2,0.4,0.3,0.6c0.1,0.1,0.1,0.3,0.2,0.4
		c0.1,0.2,0.2,0.4,0.3,0.6c0.1,0.1,0.1,0.2,0.2,0.4c0.1,0.2,0.2,0.4,0.3,0.6c0.1,0.1,0.1,0.2,0.2,0.3c0.1,0.2,0.2,0.4,0.3,0.6
		c0,0,0,0.1,0.1,0.1c0.1,0.2,0.2,0.4,0.3,0.6c0,0,0.1,0.1,0.1,0.1c0.1,0.1,0.1,0.2,0.2,0.3c0,0.1,0.1,0.1,0.1,0.1
		c0,0.1,0.1,0.1,0.1,0.2c0,0,0,0.1,0.1,0.1c0,0,0,0,0,0.1l0,0c0.1,0.1,0.1,0.2,0.1,0.2s6.2,7.4,15.2,8.3c1,0.1,2.2,0.2,3.6,0.3
		c10.2,0.9,27.9,1.8,32.3,1.8c5,0,11.1-0.6,15.8-1c1.1-0.1,3.1-0.1,5.8-0.1c3.2,0,7.4,0.1,12.1,0.2c0.7,1.5,1.2,3,1.9,4.5
		c1,2.3,2.2,4.7,4.1,6.3c1.7,1.4,4.1,2.2,6.3,1.7c0.3-0.1,0.5-0.2,0.8-0.3c-1.3-4.3-2.1-6.9-3.4-11.2c-0.1-0.2-0.2-0.5-0.3-0.8
		c4.5,0.1,9.1,0.2,13.4,0.3c8.1,0.1,21.2,0,32.6-0.2c2.4,1.5,5.5,1.7,8.4,1.7c0.7,0,1.3,0,1.9-0.3c0.4-0.2,0.7-0.5,1.1-0.7
		c1-0.6,2.3-0.4,3.4-0.5c0.5,0,1-0.2,1.4-0.5c0,0,0.1-0.1,0.1-0.1c3.2-0.1,5.2-0.1,5.2-0.1s0.2,0,0.5,0c3.6-0.1,26-0.6,31.4-0.7
		c4.4,0,8.2,0.2,9.9,0.2c0.6,0,0.9,0,0.9,0s18.6,0.6,26.6,0.6c8,0,16.7-0.6,22-1.9c5.3-1.2,10.4-3.8,13.6-6.2
		c1.6-1.2,4.4-3.7,4.4-3.7l0-0.6l0-0.7l5.3-3.6c0,0,2.2-4.5,3-9.6c0.8-5.1,2.7-17.4,2.9-23.3c0.2-3.9,0.3-11.3,0.4-15.6
		c-0.1-4.3-0.3-11.3-0.5-15.2c-0.3-6-2.2-18.3-3-23.3s-3-9.6-3-9.6l-5.3-3.6l0-0.7l0-0.6c0,0-2.9-2.5-4.4-3.7
		c-3.2-2.4-8.4-4.9-13.6-6.2c-5.3-1.2-13.9-1.8-22-1.8c-8,0-26.6,0.7-26.6,0.7s-0.3,0-0.9,0.1c-1.7,0.1-5.5,0.3-9.9,0.3
		c-5.4,0-27.8-0.5-31.4-0.6c-0.3,0-0.5,0-0.5,0s-2,0-5.2-0.1c0,0-0.1-0.1-0.1-0.1c-0.4-0.3-0.9-0.5-1.4-0.5
		c-1.2-0.1-2.4,0.1-3.4-0.5c-0.4-0.2-0.7-0.5-1.1-0.7c-0.6-0.3-1.3-0.3-1.9-0.3c-2.9,0.1-6,0.3-8.4,1.7c-11.4-0.2-24.5-0.3-32.6-0.1
		c-4.4,0.1-9,0.2-13.4,0.3c0.1-0.3,0.2-0.6,0.3-0.8c1.3-4.3,2.1-6.9,3.4-11.2c-0.3-0.1-0.5-0.2-0.8-0.3c-2.1-0.6-4.5,0.2-6.2,1.7
		C121.6,25.1,120.5,27.4,119.5,29.8z"/>
	<g id="XMLID_164_">
		<path id="XMLID_258_" fill="#808080" stroke="#333333" stroke-miterlimit="10" d="M34.2,27.7c-9,0.9-15.2,8.4-15.2,8.4
			s-4,6.2-7.7,17.3c-3.1,9.4-3.9,31-4.1,37.6c0.2,6.6,1.1,28.6,4.2,37.9c3.7,11.1,7.8,17.3,7.8,17.3s6.2,7.4,15.2,8.3
			c1,0.1,2.2,0.2,3.6,0.3c-3.2-2.8-5.1-6.7-5.8-10.9c-2.9-17.9-2-35.6-2.4-53.1c0.4-17.5-0.6-34.8,2.2-52.7
			c0.7-4.2,2.6-8.1,5.8-10.9C36.4,27.5,35.2,27.6,34.2,27.7z"/>
		<path id="XMLID_211_" fill="#808080" stroke="#333333" stroke-miterlimit="10" d="M175.6,148.6
			C174.9,148.8,175.5,148.6,175.6,148.6c-22.1,2.6-43.8,1.7-65.9-0.5c-5.2-0.6-10.2-0.3-15.2,0.3c-0.6,2.6-1.4,5.1-2.8,7.4
			c8.2,0,22.4,0.4,34.8,0.6c16.4,0.3,54.2-0.7,54.2-0.7s0.2,0,0.5,0c0-0.1,0-0.2,0-0.3c0.4-1.8,0.7-3.5,1-5.3
			c-1.7-0.1-3.4-0.3-5.1-0.5C176.5,149.6,176.2,149.1,175.6,148.6z"/>
		<path id="XMLID_202_" fill="#808080" stroke="#333333" stroke-miterlimit="10" d="M94,150.7c-10-0.6-41.8-2.4-45.8-3.1
			c-4.4-0.8-11.6-0.6-16-2.9c0.8,4,2.7,7.7,5.7,10.3c10.2,0.9,27.9,1.8,32.3,1.8c5,0,11.1-0.6,15.8-1c1.1-0.1,3.1-0.1,5.8-0.1
			C92.8,154.1,93.5,152.4,94,150.7z"/>
		<path id="XMLID_231_" fill="#1A1A1A" d="M96.7,146.5c-0.6,0.2-1.2,0.3-1.8,0.5c-0.1,0.5-0.2,0.9-0.3,1.4c5-0.5,10-0.9,15.2-0.3
			c1,0.1,1.9,0.2,2.9,0.3c1.1-1.9,1.5-4,2.4-6C108.9,143.4,102.7,144.7,96.7,146.5z"/>
		
			<linearGradient id="XMLID_2_" gradientUnits="userSpaceOnUse" x1="112.3694" y1="67.8401" x2="95.827" y2="68.2895" gradientTransform="matrix(-1.466154e-003 -1 1 -1.466154e-003 78.3443 244.9485)">
			<stop  offset="0" style="stop-color:#FFFFFF"/>
			<stop  offset="1" style="stop-color:#000000"/>
		</linearGradient>
		<path id="XMLID_232_" fill="url(#XMLID_2_)" d="M115,142.4c-0.8,2-1.3,4.1-2.4,6c20.9,2,41.6,2.7,62.5,0.3c2.4-2.6,4-5.9,4.9-9.3
			C158.4,139.1,136.5,138.8,115,142.4z"/>
		<path id="XMLID_208_" fill="#808080" stroke="#333333" stroke-miterlimit="10" d="M182.2,150.1c-0.3,1.8-0.6,3.5-1,5.3
			c0,0.1,0,0.2,0,0.3c3.6-0.1,26-0.6,31.4-0.7c4.4,0,8.2,0.2,9.9,0.2c0.5-0.7,1.1-1.3,0.9-1.9c-0.6-2.1-1.2-4.1-1.8-6.2
			C208.5,149.3,195.6,151,182.2,150.1z"/>
		<path id="XMLID_210_" fill="#808080" stroke="#333333" stroke-miterlimit="10" d="M182.8,131.2c0,2.7,0,5.4,0.1,8.1
			c4.9,0,9.8,0,14.7,0c7.2,0,14.4-1.2,21.7-1.7c-0.6-2.7-1.2-5.3-1.8-8C205.9,130,194.3,130.6,182.8,131.2z"/>
		
			<linearGradient id="XMLID_5_" gradientUnits="userSpaceOnUse" x1="110.2468" y1="123.9422" x2="97.6598" y2="124.7229" gradientTransform="matrix(-1.466154e-003 -1 1 -1.466154e-003 78.3443 244.9485)">
			<stop  offset="0" style="stop-color:#FFFFFF"/>
			<stop  offset="1" style="stop-color:#000000"/>
		</linearGradient>
		<path id="XMLID_229_" fill="url(#XMLID_5_)" d="M221.7,147.2c-0.9-3.2-1.7-6.3-2.4-9.5c-7.2,0.5-14.4,1.7-21.7,1.7
			c-2.3,0-4.5,0-6.8,0c-1.5,3.9-3.6,7.6-6.3,10.8C197,150.8,209.2,149.2,221.7,147.2z"/>
		<path id="XMLID_206_" d="M175.2,148.7c0.1,0,0.2,0,0.4,0c0,0,0.1,0,0.4,0.2c1,0.6,0.6,0.8,1.2,0.8c1.7,0.2,3.4,0.4,5.1,0.5
			c0.7,0,1.4,0.1,2.2,0.1c2.7-3.2,4.8-6.9,6.3-10.8c-2.6,0-5.2,0-7.9,0c-0.9,0-1.9,0-2.8,0C179.2,142.8,177.6,146.1,175.2,148.7z"/>
		<path id="XMLID_207_" fill="#808080" stroke="#333333" stroke-miterlimit="10" d="M278.7,137.6c-11.2,4.8-26.5,4.5-38.9,6.4
			c-6.1,1-12.1,2.1-18.1,3.1c0.6,2.1,1.2,4.1,1.8,6.2c0.2,0.6-0.4,1.2-0.9,1.9c0.6,0,0.9,0,0.9,0s18.6,0.6,26.6,0.6
			c8,0,16.7-0.6,22-1.9c5.3-1.2,10.4-3.8,13.6-6.2c1.6-1.2,4.4-3.7,4.4-3.7l0-0.6C286.4,139.3,284.5,135.3,278.7,137.6z"/>
		<path id="XMLID_218_" fill="#808080" stroke="#333333" stroke-miterlimit="10" d="M229.2,137.7c3.8,0.6,7.7,1.3,11.5,0.9
			c8.9-1.3,17.2-2.6,26.2-4.5c1.7-0.2,3-1.6,3.7-3.4c-9.2-2.6-20.1-1.2-29.3-1.4c-8-0.1-15.9,0.1-23.8,0.3c0.5,2.7,1.1,5.3,1.8,8
			C222.5,137.4,225.8,137.4,229.2,137.7z"/>
		<path id="XMLID_228_" d="M219.2,137.7c0.8,3.2,1.6,6.3,2.4,9.5c2-0.3,3.9-0.7,5.9-1l-2.7-8.7C222.9,137.5,221.1,137.5,219.2,137.7
			z"/>
		
			<linearGradient id="XMLID_6_" gradientUnits="userSpaceOnUse" x1="112.7286" y1="169.3427" x2="102.8001" y2="171.1443" gradientTransform="matrix(-1.466154e-003 -1 1 -1.466154e-003 78.3443 244.9485)">
			<stop  offset="0" style="stop-color:#FFFFFF"/>
			<stop  offset="1" style="stop-color:#000000"/>
		</linearGradient>
		<path id="XMLID_227_" fill="url(#XMLID_6_)" d="M240.7,138.6c-3.8,0.3-7.7-0.3-11.5-0.9c-1.5-0.1-2.9-0.2-4.4-0.2l2.7,8.7
			c4-0.7,8.1-1.4,12.2-2.1c10.3-1.6,22.7-1.7,33-4.4l-15.5-3.6C251.7,137,246.3,137.8,240.7,138.6z"/>
		<path id="XMLID_230_" d="M266.8,134.1c-3.3,0.7-6.5,1.3-9.6,1.9l15.5,3.6c2.1-0.6,4.1-1.2,6-2c1-0.4,1.8-0.6,2.6-0.7
			c-3-3.2-6.7-5.1-10.7-6.2C269.9,132.5,268.5,133.9,266.8,134.1z"/>
		<path id="XMLID_220_" fill="#808080" stroke="#333333" stroke-miterlimit="10" d="M182.9,139.3c0-2.7,0-5.4-0.1-8.1
			c-18.3,1-36.5,2.3-54.9,3.1c0,2.2,0.4,4.3,1.6,6.2C147.3,138.8,165.1,139.2,182.9,139.3z"/>
		<path id="XMLID_224_" fill="#333333" d="M113.6,136.9c-6.1,1-12,2-17.8,3c-7.9,1.3-15.8,2.7-24,3.8c0.8,1.8,1.5,3.5,1.3,5.5
			c7.4-0.9,14.7-0.4,21.8-2.1c0.6-0.1,1.2-0.3,1.8-0.5c10.9-3.2,21.8-5,32.9-6c-1.3-1.9-1.6-4-1.6-6.2c-0.1,0-0.2,0-0.3,0
			C122.8,134.7,118.4,136.3,113.6,136.9z"/>
		<path id="XMLID_205_" d="M11.8,130c3.3,9.5,6.7,15.1,7.3,16.1c1.4-0.2,2.8-0.3,4.2-0.2C19.7,140.5,15.8,135.2,11.8,130z"/>
		<path id="XMLID_150_" fill="#333333" d="M158,155.2c2.4,2.3,6.2,2.6,9.6,2.6c0.7,0,1.3,0,1.9-0.3c0.4-0.2,0.7-0.5,1.1-0.7
			c1-0.6,2.3-0.4,3.4-0.5c0.5,0,1-0.2,1.4-0.5c0.4-0.3,0.5-1,0.2-1.4c-2.2,0-4.4,0-6.6,0c0.1,0.8-0.5,1.6-1.3,1.9
			c-0.8,0.3-1.6,0.3-2.5,0.2c-1.9-0.1-4.1-0.4-5-2c-0.1-0.2-0.2-0.4-0.3-0.4c-0.2-0.1-0.4,0-0.6,0.1c-0.4,0.2-0.8,0.3-1.2,0.5
			c-0.1,0.1-0.3,0.2-0.2,0.3c0,0.1,0.3,0,0.2-0.1"/>
		<path id="XMLID_223_" fill="#333333" d="M98.8,147.9c-0.6,0.6-1,1.3-1.3,1.8c-0.3,0.6-0.6,1-0.6,1c2.1-0.2,4.5,1.1,5.6,2.9
			c1.4,2.1,2.2,4.6,3.1,6.9c1,2.3,2.2,4.7,4.1,6.3c1.7,1.4,4.1,2.2,6.3,1.7l-4.7-15.7c-0.4-0.2-0.9-0.3-1.7-0.2
			c-0.2-0.4-0.4-1-0.6-1.4c1.5-1,1.6-1.2,2.6-2.7C106.6,147.5,103.4,147.6,98.8,147.9z"/>
		<path id="XMLID_233_" d="M116.9,168.1c-1.3-4.3-2.1-6.9-3.4-11.2c-0.2-0.8-0.6-2.1-0.9-2.9c-0.2-0.5-0.4-1.1-1.1-1.4l4.7,15.7
			C116.3,168.3,116.6,168.2,116.9,168.1z"/>
		<path id="XMLID_255_" fill="#808080" stroke="#333333" stroke-miterlimit="10" d="M175.5,33.3C174.7,33.1,175.4,33.3,175.5,33.3
			c-22.1-2.5-43.8-1.5-65.9,0.7c-5.2,0.7-10.2,0.3-15.2-0.2c-0.6-2.6-1.4-5.1-2.8-7.4c8.2-0.1,22.4-0.5,34.8-0.7
			c16.4-0.3,54.2,0.5,54.2,0.5s0.2,0,0.5,0c0,0.1,0,0.2,0,0.3c0.4,1.8,0.7,3.5,1,5.3c-1.7,0.1-3.4,0.3-5.1,0.5
			C176.3,32.3,176,32.8,175.5,33.3z"/>
		<path id="XMLID_203_" fill="#666666" d="M48.1,34.8c-4.7,0.9-12.6,0.7-16.8,3.4c-4.3,2.8-10.2,9-13.2,16c-3,7-4.2,15.8-4.7,21.3
			c-0.3,3.6-0.6,10.9-0.8,15.5c0.2,4.7,0.6,12.3,0.9,15.9c0.4,5.5,1.7,14.3,4.7,21.3c3,7,9,13.2,13.2,15.9
			c4.3,2.8,12.1,2.5,16.8,3.4c4.7,0.8,48.8,3.3,48.8,3.3l3.5-5.3l0-4.1c-14.6,5.6-32.9,9.8-43.8-3.2c-11.2-13-12.8-30.5-13.7-47.3
			c0.8-16.8,2.4-34,13.5-47c10.8-13,29.1-8.9,43.8-3.3l0-4.1l-3.5-5.3C96.8,31.3,52.7,33.9,48.1,34.8z"/>
		<path id="XMLID_253_" fill="#808080" stroke="#333333" stroke-miterlimit="10" d="M93.8,31.5c-10,0.6-41.8,2.5-45.8,3.2
			c-4.4,0.8-11.6,0.7-16,2.9c0.8-4,2.7-7.7,5.7-10.3c10.2-0.9,27.9-1.9,32.3-1.9c5,0,11.1,0.6,15.8,0.9c1.1,0.1,3.1,0.1,5.8,0.1
			C92.6,28.1,93.3,29.8,93.8,31.5z"/>
		<path id="XMLID_256_" d="M59.1,33.8c-14,1.3-22.1,2-29,7.7c-3.5,2.9-6.7,8.6-12.4,21.1c-4.2,9.2-4.7,22.8-4.8,28.4
			c0,5.6,0.6,19.6,4.9,28.8c5.8,12.5,9,18.2,12.5,21.1c6.9,5.7,15,6.4,29.1,7.6c14.1,1.3,38.6,0.6,38.6,0.6l2.5-3.5l-16,1.9
			l-11.2,0.3c0,0-31.9-5.1-37.7-9.8S21.3,123.3,20,118.5c-1-3.8-2.5-20.8-3-27.5c0.5-6.8,1.9-23.4,2.9-27.1
			c1.3-4.8,9.9-14.7,15.6-19.5s37.7-10,37.7-10l11.2,0.3l16,1.9l-2.6-3.5C97.8,33.1,73.2,32.5,59.1,33.8z"/>
		<path id="XMLID_252_" fill="#1A1A1A" d="M96.5,35.6c-0.6-0.2-1.2-0.3-1.8-0.5c-0.1-0.5-0.2-0.9-0.3-1.4c5,0.5,10,0.9,15.2,0.2
			c1-0.1,1.9-0.2,2.9-0.3c1.1,1.9,1.6,4,2.4,6C108.7,38.7,102.6,37.4,96.5,35.6z"/>
		
			<linearGradient id="XMLID_7_" gradientUnits="userSpaceOnUse" x1="7882.8721" y1="67.8401" x2="7866.3296" y2="68.2895" gradientTransform="matrix(1.466154e-003 1 1 -1.466154e-003 66.5005 -7833.2358)">
			<stop  offset="0" style="stop-color:#FFFFFF"/>
			<stop  offset="1" style="stop-color:#000000"/>
		</linearGradient>
		<path id="XMLID_251_" fill="url(#XMLID_7_)" d="M114.8,39.7c-0.8-2-1.3-4.1-2.4-6c20.9-2,41.6-2.8,62.5-0.5
			c2.4,2.6,4.1,5.9,4.9,9.3C158.2,42.8,136.4,43.3,114.8,39.7z"/>
		<path id="XMLID_250_" fill="#808080" stroke="#333333" stroke-miterlimit="10" d="M182.1,31.8c-0.3-1.8-0.6-3.5-1-5.3
			c0-0.1,0-0.2,0-0.3c3.6,0.1,26,0.6,31.4,0.6c4.4,0,8.2-0.2,9.9-0.3c0.5,0.7,1.1,1.3,0.9,1.9c-0.6,2.1-1.2,4.1-1.8,6.2
			C208.3,32.5,195.5,30.9,182.1,31.8z"/>
		<path id="XMLID_249_" fill="#808080" stroke="#333333" stroke-miterlimit="10" d="M182.7,50.7c0-2.7,0-5.4,0-8.1
			c4.9,0,9.8-0.1,14.7,0c7.2,0,14.4,1.2,21.7,1.6c-0.6,2.7-1.2,5.3-1.7,8C205.8,51.8,194.2,51.3,182.7,50.7z"/>
		
			<linearGradient id="XMLID_8_" gradientUnits="userSpaceOnUse" x1="7880.7495" y1="123.9422" x2="7868.1626" y2="124.7229" gradientTransform="matrix(1.466154e-003 1 1 -1.466154e-003 66.5005 -7833.2358)">
			<stop  offset="0" style="stop-color:#FFFFFF"/>
			<stop  offset="1" style="stop-color:#000000"/>
		</linearGradient>
		<path id="XMLID_248_" fill="url(#XMLID_8_)" d="M221.5,34.6c-0.9,3.2-1.7,6.3-2.4,9.5c-7.2-0.4-14.4-1.6-21.7-1.6
			c-2.3,0-4.5,0-6.8,0c-1.5-3.9-3.6-7.6-6.4-10.8C196.9,31.1,209,32.6,221.5,34.6z"/>
		<path id="XMLID_247_" d="M175,33.3c0.1,0,0.2,0,0.4,0c0,0,0.1,0,0.4-0.2c1-0.6,0.6-0.8,1.2-0.8c1.7-0.2,3.4-0.4,5.1-0.5
			c0.7-0.1,1.4-0.1,2.2-0.1c2.7,3.2,4.8,6.9,6.4,10.8c-2.6,0-5.2,0-7.9,0.1c-0.9,0-1.9,0-2.8,0C179.1,39.1,177.4,35.8,175,33.3z"/>
		<path id="XMLID_246_" fill="#808080" stroke="#333333" stroke-miterlimit="10" d="M278.5,44c-11.2-4.8-26.5-4.4-39-6.3
			c-6.1-1-12.1-2.1-18.1-3c0.6-2.1,1.2-4.1,1.8-6.2c0.2-0.6-0.4-1.2-0.9-1.9c0.6,0,0.9-0.1,0.9-0.1s18.6-0.6,26.6-0.7
			c8,0,16.7,0.6,22,1.8c5.3,1.2,10.4,3.7,13.6,6.2c1.6,1.2,4.4,3.7,4.4,3.7l0,0.6C286.3,42.2,284.4,46.3,278.5,44z"/>
		<path id="XMLID_245_" fill="#808080" stroke="#333333" stroke-miterlimit="10" d="M229,44.1c3.8-0.6,7.7-1.3,11.5-1
			c8.9,1.3,17.2,2.5,26.2,4.4c1.7,0.2,3,1.6,3.7,3.4c-9.2,2.6-20.1,1.2-29.3,1.5c-8,0.1-15.9,0-23.8-0.2c0.5-2.7,1.1-5.3,1.7-8
			C222.4,44.3,225.7,44.4,229,44.1z"/>
		<path id="XMLID_244_" d="M219.1,44.1c0.7-3.2,1.6-6.3,2.4-9.5c2,0.3,3.9,0.6,5.9,1l-2.7,8.7C222.8,44.3,220.9,44.3,219.1,44.1z"/>
		
			<linearGradient id="XMLID_9_" gradientUnits="userSpaceOnUse" x1="7883.231" y1="169.3427" x2="7873.3027" y2="171.1443" gradientTransform="matrix(1.466154e-003 1 1 -1.466154e-003 66.5005 -7833.2358)">
			<stop  offset="0" style="stop-color:#FFFFFF"/>
			<stop  offset="1" style="stop-color:#000000"/>
		</linearGradient>
		<path id="XMLID_243_" fill="url(#XMLID_9_)" d="M240.5,43.1c-3.8-0.3-7.7,0.3-11.5,1c-1.5,0.1-2.9,0.2-4.4,0.2l2.7-8.7
			c4,0.7,8.1,1.4,12.2,2.1c10.4,1.6,22.7,1.6,33,4.3l-15.5,3.7C251.6,44.7,246.2,43.9,240.5,43.1z"/>
		<path id="XMLID_242_" d="M266.7,47.5c-3.3-0.7-6.5-1.3-9.6-1.9l15.5-3.7c2.1,0.5,4.1,1.2,6,2c1,0.4,1.8,0.6,2.6,0.7
			c-3,3.2-6.7,5.1-10.7,6.2C269.8,49.1,268.4,47.8,266.7,47.5z"/>
		<path id="XMLID_209_" fill="#A6A6A6" d="M73.2,34.4c0,0-30.4,5.8-35.8,7.7c-10.2,3.7-19.8,20.5-19.8,20.5s1,0.3,0.6,4.2
			c-0.3,3.8-2.2,18.2-2.2,18.2s-0.3,2.6-1.3,3.2s-1.4,1.1-1.4,1.1l0,1.8l0,2.2c0,0,0.5,0.4,1.4,1.1c1,0.6,1.3,3.2,1.3,3.2
			s1.9,14.4,2.3,18.2s-0.6,4.2-0.6,4.2s9.6,16.7,19.8,20.4c5.4,1.9,35.8,7.6,35.8,7.6l-0.9-3.6l-0.7,0.1c0,0-7.3-2.2-9.3-3.2
			c-1.9-1-5.1-4.5-6.4-7.7s-6.7-17.9-7.4-31.3c-0.2-5-0.4-8.9-0.4-11.2c0-2.4,0.1-5.8,0.4-10.9c0.6-13.4,6-28.1,7.3-31.3
			c1.3-3.2,4.5-6.7,6.4-7.7c1.9-1,9.3-3.2,9.3-3.2l0.7,0.1L73.2,34.4z"/>
		
			<linearGradient id="XMLID_10_" gradientUnits="userSpaceOnUse" x1="70.6147" y1="205.5352" x2="250.6126" y2="205.5352" gradientTransform="matrix(-1.466154e-003 -1 1 -1.466154e-003 78.3443 244.9485)">
			<stop  offset="0" style="stop-color:#FFFFFF"/>
			<stop  offset="1" style="stop-color:#000000"/>
		</linearGradient>
		<path id="XMLID_221_" fill="url(#XMLID_10_)" d="M270.4,50.9c2.3,1.5,3.4,4.5,4,6.8c3,11,4.3,21.9,3.6,32.9
			c0.7,11-0.5,22.3-3.5,33.3c-0.5,2.3-1.7,5.3-3.9,6.8c4,1.1,7.6,3,10.6,6.1c16.1-8.8,15.6-28.9,15.7-46.2
			c-0.1-17.3,0.3-37.1-15.8-45.8C278,47.9,274.4,49.8,270.4,50.9z"/>
		<path id="XMLID_200_" fill="#808080" stroke="#333333" stroke-miterlimit="10" d="M126.1,90.8c-0.2,14.4,0.7,29.1,1.7,43.5
			c18.4-0.8,36.7-2.1,55-3.1c11.5-0.7,23.1-1.2,34.6-1.6c7.9-0.2,15.9-0.3,23.8-0.3c3.9,0.1,8.1-0.1,12.3-0.2
			c5.2-11.8,4.5-25.7,4.8-38.5c-0.3-12.8,0.3-26.4-5-38.1c-4.3-0.1-8.5-0.3-12.3-0.2c-8,0.1-15.9,0-23.8-0.2
			c-11.6-0.3-23.1-0.8-34.7-1.5c-18.3-1-36.6-2.2-55-2.9C126.7,62.1,125.9,76.5,126.1,90.8z"/>
		<path id="XMLID_204_" fill="#808080" stroke="#333333" stroke-miterlimit="10" d="M253.5,52.5c5.2,11.8,4.5,25.3,4.8,38.1
			c-0.3,12.8,0.5,26.8-4.7,38.5c4.3-0.1,8.6,0,12.7,0.6c2.4-1.4,4.6-3.2,5.6-5.6c4-10.7,3.7-22.2,4.1-33.6
			c-0.4-11.4-0.2-22.5-4.2-33.2c-1.1-2.4-3.3-4.1-5.7-5.6C262.1,52.5,257.8,52.6,253.5,52.5z"/>
		<path id="XMLID_219_" d="M266.2,51.8c2.4,1.4,4.6,3.2,5.7,5.6c4,10.7,3.8,21.8,4.2,33.2c-0.4,11.4-0.1,22.9-4.1,33.6
			c-1.1,2.4-3.3,4.2-5.6,5.6c1.4,0.2,2.9,0.5,4.3,0.9c2.3-1.6,3.4-4.5,3.9-6.8c3-11,4-22.3,4-33.3s-1.1-21.9-4.1-32.9
			c-0.5-2.3-1.7-5.3-4-6.8C269,51.3,267.6,51.6,266.2,51.8z"/>
		<path id="XMLID_217_" fill="#808080" stroke="#333333" stroke-miterlimit="10" d="M281.1,44.7c0,0-0.1,0.1-0.1,0.1
			c16.1,8.7,15.7,28.5,15.8,45.8c-0.1,17.3,0.4,37.5-15.7,46.2c0,0,0.1,0.1,0.1,0.1c3.9-0.3,5.8,3.1,8.9,6.5l0-0.7l5.3-3.6
			c0,0,2.2-4.5,3-9.6c0.8-5.1,2.7-17.4,2.9-23.3c0.2-3.9,0.3-11.3,0.4-15.6c-0.1-4.3-0.3-11.3-0.5-15.2c-0.3-6-2.2-18.3-3-23.3
			c-0.8-5.1-3-9.6-3-9.6l-5.3-3.6l0-0.7C286.9,41.6,285,45,281.1,44.7z"/>
		<path id="XMLID_236_" fill="#808080" stroke="#333333" stroke-miterlimit="10" d="M182.7,42.6c0,2.7,0,5.4,0,8.1
			c-18.3-1-36.6-2.2-54.9-2.9c0-2.2,0.4-4.3,1.6-6.2C147.1,43.2,165,42.7,182.7,42.6z"/>
		<path id="XMLID_235_" fill="#333333" d="M113.4,45.2c-6.1-0.9-12-1.9-17.8-2.9c-7.9-1.3-15.8-2.6-24-3.7c0.8-1.8,1.5-3.5,1.3-5.5
			c7.4,0.9,14.7,0.4,21.8,2.1c0.6,0.1,1.2,0.3,1.8,0.5c10.9,3.1,21.9,4.9,32.9,5.9c-1.2,1.9-1.6,4-1.6,6.2c-0.1,0-0.2,0-0.3,0
			C122.7,47.4,118.2,45.8,113.4,45.2z"/>
		<path id="XMLID_199_" fill="#595959" d="M62.3,41.1c-1.9,1-5.1,4.5-6.4,7.7c-1.3,3.2-6.7,17.9-7.3,31.3c-0.2,5-0.3,8.5-0.4,10.9
			c0,2.4,0.2,6.2,0.4,11.2c0.7,13.4,6.1,28.1,7.4,31.3s4.5,6.7,6.4,7.7c1.9,1,9.3,3.2,9.3,3.2l56.2-9c0,0-1-11.5-1.3-25.9
			c-0.2-8-0.2-14.6-0.1-18.6c-0.1-3.9-0.1-10.2,0.1-18.2c0.3-14.4,1.2-25.9,1.2-25.9l-56.2-8.9C71.6,37.9,64.2,40.2,62.3,41.1z"/>
		
			<linearGradient id="XMLID_11_" gradientUnits="userSpaceOnUse" x1="103.1319" y1="13.1866" x2="204.5583" y2="13.1866" gradientTransform="matrix(-1.466154e-003 -1 1 -1.466154e-003 78.3443 244.9485)">
			<stop  offset="0" style="stop-color:#FFFFFF"/>
			<stop  offset="1" style="stop-color:#000000"/>
		</linearGradient>
		<path id="XMLID_215_" fill="url(#XMLID_11_)" d="M69.7,44.3c-3.2,3.5-7.6,15-9.5,25.2c-1.3,7.2-1.4,16.6-1.3,21.4
			c-0.1,4.8,0,14.5,1.4,21.8c1.9,10.2,6.4,21.7,9.6,25.2c3.2,3.5,5.1,4.1,8.9,3.8c3.8-0.3,40.2-7.4,41.8-7.7s3.8,0,3.2-5.4
			c-0.6-5.4-1.6-16.6-1.6-21.7c0-5.1,0.3-10.2,0.3-10.2s-0.3-1.6-1.9-1.6c-1.3,0-7.3-0.4-9.5-0.6c-0.4,0-0.7-0.4-0.7-0.8l0-2.8
			l0-2.4c0-0.4,0.3-0.8,0.7-0.8c2.1-0.2,8.2-0.6,9.5-0.6c1.6,0,1.9-1.6,1.9-1.6s-0.3-5.1-0.3-10.2s0.9-16.3,1.6-21.7
			s-1.6-5.1-3.2-5.4c-1.6-0.3-38-7.3-41.8-7.6C74.8,40.1,72.9,40.8,69.7,44.3z"/>
		<path id="XMLID_216_" d="M11.7,52.4c3.3-9.5,6.6-15.1,7.3-16.1c1.4,0.2,2.8,0.3,4.2,0.2C19.5,41.9,15.7,47.2,11.7,52.4z"/>
		<path id="XMLID_213_" fill="#333333" d="M157.8,26.8c2.4-2.4,6.2-2.6,9.6-2.7c0.7,0,1.3,0,1.9,0.3c0.4,0.2,0.7,0.5,1.1,0.7
			c1,0.6,2.3,0.4,3.4,0.5c0.5,0,1,0.2,1.4,0.5c0.4,0.3,0.5,1,0.2,1.4c-2.2,0-4.4,0-6.6,0c0.1-0.8-0.5-1.6-1.3-1.9s-1.6-0.3-2.5-0.2
			c-1.9,0.1-4.1,0.4-4.9,2.1c-0.1,0.2-0.2,0.4-0.3,0.4c-0.2,0.1-0.4,0-0.6-0.1c-0.4-0.2-0.8-0.3-1.2-0.5c-0.1-0.1-0.3-0.1-0.2-0.3
			c0-0.1,0.3,0,0.2,0.1"/>
		<path id="XMLID_212_" fill="#333333" d="M98.6,34.2c-0.6-0.6-1-1.3-1.3-1.8c-0.3-0.6-0.6-1-0.6-1c2.1,0.2,4.5-1.1,5.6-2.9
			c1.4-2.1,2.1-4.6,3.1-6.9c1-2.3,2.1-4.7,4.1-6.3c1.7-1.5,4.1-2.2,6.2-1.7l-4.6,15.8c-0.4,0.2-0.9,0.3-1.7,0.2
			c-0.1,0.4-0.4,1-0.6,1.4c1.5,1,1.6,1.2,2.6,2.7C106.5,34.7,103.2,34.6,98.6,34.2z"/>
		<path id="XMLID_201_" d="M116.6,14c-1.3,4.3-2.1,6.9-3.4,11.2c-0.2,0.8-0.6,2.1-0.9,2.9c-0.2,0.5-0.4,1.1-1.1,1.4l4.6-15.8
			C116.1,13.8,116.4,13.9,116.6,14z"/>
		<circle id="XMLID_135_" cx="20" cy="91.4" r="3.1"/>
	</g>
</g>
</svg>
